<mxfile host="app.diagrams.net" modified="2024-07-14T07:48:19.000Z" agent="Mozilla/5.0 (Windows NT 10.0; Win64; x64) AppleWebKit/537.36 (KHTML, like Gecko) Chrome/126.0.0.0 Safari/537.36" version="24.4.13" etag="P1Eqxt_nrftrw_kubl8n" type="github">
  <diagram name="第 1 页" id="ZwLFHBW-_HAKNuFKVvG5">
    <mxGraphModel>
      <root>
        <mxCell id="0" />
        <mxCell id="1" parent="0" />
      </root>
    </mxGraphModel>
  </diagram>
</mxfile>
